<?xml version="1.0" ?><!DOCTYPE svg  PUBLIC '-//W3C//DTD SVG 1.1//EN'  'http://www.w3.org/Graphics/SVG/1.1/DTD/svg11.dtd'><svg height="8.4666mm" style="shape-rendering:geometricPrecision; text-rendering:geometricPrecision; image-rendering:optimizeQuality; fill-rule:evenodd; clip-rule:evenodd" version="1.1" viewBox="0 0 846.66 846.66" width="8.4666mm" xml:space="preserve" xmlns="http://www.w3.org/2000/svg" xmlns:xlink="http://www.w3.org/1999/xlink"><defs><style type="text/css">
   <![CDATA[
    .fil0 {fill:black;fill-rule:nonzero}
   ]]>
  </style></defs><g id="Layer_x0020_1"><path class="fil0" d="M296.56 149.35c-27.24,0 -27.24,-41.41 0,-41.41l55.54 0 0 -78.13c0,-11.43 9.27,-20.71 20.71,-20.71l101.04 0c11.44,0 20.71,9.28 20.71,20.71l0 78.13 55.54 0c27.24,0 27.24,41.41 0,41.41 -84.51,0 -169.03,0 -253.54,0zm-20.91 255.17l43.72 0 0 43.72 -43.72 0 0 -43.72zm0 217.64l43.72 0 0 43.73 -43.72 0 0 -43.73zm251.64 0l43.73 0 0 43.73 -43.73 0 0 -43.73zm-83.88 0l43.72 0 0 43.73 -43.72 0 0 -43.73zm-83.88 0l43.72 0 0 43.73 -43.72 0 0 -43.73zm-83.88 -108.82l43.72 0 0 43.73 -43.72 0 0 -43.73zm251.64 0l43.73 0 0 43.73 -43.73 0 0 -43.73zm-83.88 0l43.72 0 0 43.73 -43.72 0 0 -43.73zm-83.88 0l43.72 0 0 43.73 -43.72 0 0 -43.73zm167.76 -108.82l43.73 0 0 43.72 -43.73 0 0 -43.72zm-83.88 0l43.72 0 0 43.72 -43.72 0 0 -43.72zm-83.88 0l43.72 0 0 43.72 -43.72 0 0 -43.72zm33.99 -296.58l59.62 0 0 -57.42 -59.62 0 0 57.42zm-142.81 201.01l345.24 0c37.78,0 68.61,30.82 68.61,68.6l0 315.31c0,37.78 -30.83,68.6 -68.61,68.6l-345.24 0c-37.78,0 -68.61,-30.82 -68.61,-68.6l0 -315.31c0,-37.78 30.83,-68.6 68.61,-68.6zm345.24 41.41l-345.24 0c-14.91,0 -27.19,12.28 -27.19,27.19l0 315.31c0,14.91 12.28,27.19 27.19,27.19l345.24 0c14.91,0 27.19,-12.28 27.19,-27.19l0 -315.31c0,-14.91 -12.28,-27.19 -27.19,-27.19zm-441.68 -145l538.12 0 0 -14.34c0,-22.87 -18.79,-41.67 -41.66,-41.67l-43.58 0c-27.24,0 -27.24,-41.41 0,-41.41l43.58 0c45.74,0 83.08,37.34 83.08,83.08l0 563.45c0,45.74 -37.34,83.09 -83.08,83.09l-454.8 0c-45.74,0 -83.08,-37.35 -83.08,-83.09l0 -563.45c0,-45.74 37.35,-83.08 83.08,-83.08l43.58 0c27.24,0 27.24,41.41 0,41.41l-43.58 0c-22.87,0 -41.66,18.8 -41.66,41.67l0 14.34zm538.12 41.42l-538.12 0 0 507.69c0,22.87 18.79,41.67 41.66,41.67l454.8 0c22.87,0 41.66,-18.8 41.66,-41.67l0 -507.69z"/></g></svg>